<?xml version="1.0" encoding="UTF-8"?>
<svg id="Livello_1" data-name="Livello 1" xmlns="http://www.w3.org/2000/svg" viewBox="0 0 320 320">
  <defs>
    <style>
      .cls-1 {
        fill: #fff;
        stroke-width: 0px;
      }
    </style>
  </defs>
  <path class="cls-1" d="m272.43,235.45c0,48.21-35.65,84.55-82.94,84.55h-111.35l.2-69.89,109.91-118.94c14.63-16.84,25.81-31.15,25.81-48.84,0-28.47-23.05-51.65-51.48-51.85H47.57V0h115.03c45.24.2,81.96,37.06,81.96,82.34,0,30.56-19.32,52.78-33.43,69.01l-.3.33-102.01,110.39-.09,27.44h80.77c30.4,0,52.45-22.73,52.45-54.06,0-26.86-10.07-35.32-21.75-45.13-2.03-1.7-4.23-3.56-6.28-5.42l20.62-22.46c1.6,1.47,3.38,2.95,5.26,4.53,13.78,11.57,32.63,27.41,32.63,68.48Z"/>
  <path class="cls-1" d="m187.87,72.3c-5.18-13.25-17.36-21.99-31.78-22.79-.77-.04-1.55-.06-2.34-.06H47.62v157.5c0,5.24,3.5,14.04,11.27,17.19,1.92.77,3.91,1.15,5.86,1.15,4.11,0,8.13-1.64,11.12-4.73l104.45-110.66c9.77-10.13,12.66-24.52,7.55-37.58Zm-29.51,16.45l-80.25,85.03v-93.84h75.65c.22,0,.44,0,.65.01,3.31.19,4.6,2.25,5.08,3.45.52,1.36.77,3.38-1.13,5.34Z"/>
</svg>